<svg xmlns="http://www.w3.org/2000/svg"
    xmlns:xlink="http://www.w3.org/1999/xlink" width="512px" height="512px" viewBox="0 0 512 512" version="1.1" style="background: #000;">
    <g id="surface1">
        <path d="M 482.265625 1.808594 C 473.925781 4.519531 466.765625 9.039062 457.335938 17.582031 C 438.210938 35 422.253906 58.660156 407.207031 92.015625 C 404.214844 98.589844 396.78125 114.609375 390.707031 127.753906 C 379.195312 152.484375 375.75 160.535156 369.769531 176.882812 C 363.421875 194.464844 357.167969 216.8125 357.167969 222.316406 C 357.167969 223.628906 356.625 225.519531 355.898438 226.339844 C 354.71875 227.820312 354.175781 227.820312 350.640625 227 C 342.570312 225.027344 341.757812 224.535156 341.757812 221.660156 C 341.757812 220.179688 342.570312 212.867188 343.570312 205.390625 C 347.828125 172.199219 349.550781 145.417969 349.824219 105.898438 C 350.097656 57.015625 345.292969 36.96875 329.429688 21.441406 C 320.996094 13.144531 312.65625 10.351562 302.324219 12.324219 C 297.699219 13.226562 296.160156 13.964844 291.355469 18.238281 C 285.007812 23.742188 281.199219 30.070312 278.117188 40.011719 C 276.125 46.335938 276.125 47.320312 275.761719 113.785156 C 275.398438 193.644531 275.488281 194.546875 282.921875 216.234375 C 285.460938 223.464844 285.097656 232.914062 282.289062 236.363281 C 280.386719 238.664062 280.292969 238.664062 270.957031 238.5 C 238.867188 237.761719 203.058594 246.960938 156.375 267.832031 C 83.761719 300.199219 19.308594 350.480469 3.714844 386.875 L 1.359375 392.296875 L 1.085938 430.664062 L 0.816406 469.113281 L 37.167969 469.113281 L 37.167969 475.851562 L 37.257812 482.671875 L 51.308594 496.800781 L 65.449219 511.015625 L 170.515625 511.015625 C 228.261719 511.015625 275.582031 510.769531 275.488281 510.355469 C 275.398438 510.027344 272.5 505.921875 268.964844 501.238281 L 262.4375 492.691406 L 233.699219 483.574219 C 217.835938 478.5625 204.78125 474.125 204.511719 473.632812 C 204.328125 473.222656 207.140625 468.539062 210.675781 463.363281 C 214.300781 458.1875 222.1875 446.601562 228.351562 437.648438 L 239.5 421.300781 L 242.222656 423.683594 C 243.761719 424.914062 264.792969 445.125 288.996094 468.457031 L 332.964844 511.015625 L 358.617188 511.015625 C 372.757812 511.015625 384.363281 510.769531 384.363281 510.4375 C 384.363281 510.109375 381.371094 506.332031 377.65625 502.058594 C 353.902344 473.960938 333.597656 448.984375 333.597656 447.753906 C 333.597656 446.933594 336.5 433.539062 340.035156 418.011719 C 343.570312 402.484375 346.921875 387.449219 347.46875 384.574219 C 348.285156 380.632812 348.917969 379.234375 350.367188 378.660156 C 351.367188 378.332031 358.980469 377.507812 367.320312 376.769531 L 382.457031 375.539062 L 394.789062 369.953125 C 408.386719 363.789062 415.726562 358.613281 421.710938 350.726562 C 424.613281 346.863281 425.246094 345.304688 426.152344 338.484375 C 427.511719 328.871094 425.882812 302.007812 423.253906 290.011719 C 418.539062 269.0625 409.109375 253.78125 391.796875 239.074219 L 381.644531 230.53125 L 415.003906 200.050781 C 433.3125 183.375 450.628906 167.269531 453.4375 164.3125 C 494.59375 120.605469 521.609375 46.992188 508.644531 13.636719 C 504.113281 1.890625 494.957031 -2.21875 482.265625 1.808594 Z M 350.820312 270.789062 C 357.167969 272.511719 364.328125 278.839844 366.503906 284.589844 C 370.765625 295.847656 365.871094 307.511719 354.449219 313.34375 C 350.003906 315.644531 348.644531 315.890625 342.210938 315.890625 C 334.503906 315.890625 330.515625 314.578125 324.804688 310.222656 C 320.816406 307.183594 317.191406 300.445312 316.644531 295.105469 C 314.921875 278.019531 332.148438 265.777344 350.820312 270.789062 Z M 350.820312 270.789062 " fill="#fff"/>
    </g>
</svg>