<svg xmlns="http://www.w3.org/2000/svg" version="1.0" width="565.000000pt" height="623.000000pt" viewBox="0 0 565.000000 623.000000" preserveAspectRatio="xMidYMid meet">

    <g transform="translate(0.000000,623.000000) scale(0.100000,-0.100000)" fill="#fff" stroke="none">
        <path d="M5320 6208 c-92 -33 -171 -88 -275 -192 -211 -212 -387 -500 -553 -906 -33 -80 -115 -275 -182 -435 -127 -301 -165 -399 -231 -598 -70 -214 -139 -486 -139 -553 0 -16 -6 -39 -14 -49 -13 -18 -19 -18 -58 -8 -89 24 -98 30 -98 65 0 18 9 107 20 198 47 404 66 730 69 1211 3 595 -50 839 -225 1028 -93 101 -185 135 -299 111 -51 -11 -68 -20 -121 -72 -70 -67 -112 -144 -146 -265 -22 -77 -22 -89 -26 -898 -4 -972 -3 -983 79 -1247 28 -88 24 -203 -7 -245 -21 -28 -22 -28 -125 -26 -354 9 -749 -103 -1264 -357 -801 -394 -1512 -1006 -1684 -1449 l-26 -66 -3 -467 -3 -468 200 0 201 0 0 -82 1 -83 155 -172 156 -173 1159 0 c637 0 1159 3 1158 8 -1 4 -33 54 -72 111 l-72 104 -317 111 c-175 61 -319 115 -322 121 -2 5 29 62 68 125 40 63 127 204 195 313 l123 199 30 -29 c17 -15 249 -261 516 -545 l485 -518 283 0 c156 0 284 3 284 7 0 4 -33 50 -74 102 -262 342 -486 646 -486 661 0 10 32 173 71 362 39 189 76 372 82 407 9 48 16 65 32 72 11 4 95 14 187 23 l167 15 136 68 c150 75 231 138 297 234 32 47 39 66 49 149 15 117 -3 444 -32 590 -52 255 -156 441 -347 620 l-112 104 368 371 c202 203 393 399 424 435 454 532 752 1428 609 1834 -50 143 -151 193 -291 144z m-1450 -3274 c70 -21 149 -98 173 -168 47 -137 -7 -279 -133 -350 -49 -28 -64 -31 -135 -31 -85 0 -129 16 -192 69 -44 37 -84 119 -90 184 -19 208 171 357 377 296z"/>

    </g>
</svg>